<svg width="36" height="36" viewBox="0 0 36 36" fill="none" xmlns="http://www.w3.org/2000/svg">
<g clip-path="url(#clip0_24_593)">
<path fill-rule="evenodd" clip-rule="evenodd" d="M7.86723 0.00094852C9.75415 0.0272893 11.0988 1.4971 12.7999 3.35676C13.2205 3.81509 13.675 4.31557 14.1834 4.84238C16.6481 7.40622 15.947 9.49767 15.3811 11.1765C14.7662 13.008 14.2341 14.5885 17.4201 17.9004C20.606 21.2123 22.1247 20.6591 23.8849 20.0147C25.5016 19.4281 27.5084 18.6941 29.9781 21.2579C30.4798 21.7795 30.9528 22.2466 31.392 22.6804C33.1877 24.4575 34.6067 25.8606 34.6306 27.8273C34.649 29.5026 33.6692 31.213 31.2502 33.7277L30.1791 32.9726L31.0863 33.891C30.5508 34.4617 29.1267 35.9824 26.3377 36H26.2871C22.0774 36 16.5889 32.516 9.97375 25.6411C3.33153 18.738 -0.0250559 13.015 0.000140805 8.63019C0.0154867 5.7327 1.47671 4.24884 2.02572 3.69217L2.07258 3.63897L2.1862 3.52008C4.61031 1.00014 6.27593 -0.0359286 7.86723 0.00094852ZM7.83513 2.63503H7.82162C7.06303 2.63503 5.91099 3.42525 4.30426 5.04766L3.98162 5.37703L3.98528 5.37622C3.98528 5.37622 3.95771 5.4091 3.91072 5.45891L3.79777 5.57641C3.38897 5.98908 2.54264 6.84779 2.53411 8.64423C2.52068 11.1571 4.11028 15.823 11.7644 23.7779C19.3813 31.6942 23.863 33.3659 26.2871 33.3659H26.3225C28.0507 33.3554 28.875 32.4756 29.272 32.0524C29.392 31.9242 29.4899 31.8276 29.5592 31.7697C31.2434 30.0084 32.1049 28.7001 32.0965 27.8589C32.0863 27.002 31.061 25.9905 29.6437 24.5874C29.1926 24.1431 28.7027 23.6567 28.1858 23.1194C26.8445 21.7303 26.184 21.9674 24.7228 22.5012C22.7041 23.237 19.9388 24.245 15.6294 19.7618C11.3184 15.2821 12.2847 12.4075 12.9891 10.3072C13.4993 8.78999 13.7324 8.09986 12.3928 6.70555C11.8691 6.16118 11.3978 5.6449 10.9637 5.17076C9.62238 3.70622 8.65443 2.64732 7.83513 2.63503ZM22.3766 6.2481C25.8919 6.95755 28.6066 9.77776 29.2908 13.4339C29.4242 14.1503 28.9766 14.8405 28.2907 14.9792C28.2079 14.995 28.1269 15.0038 28.0458 15.0038C27.4511 15.0038 26.9224 14.5683 26.8042 13.9396C26.3176 11.3406 24.3902 9.337 21.8934 8.83301C21.2059 8.69428 20.7582 8.00415 20.8917 7.28944C21.0251 6.57473 21.7009 6.10762 22.3766 6.2481ZM22.2754 0.010958C29.1642 0.806449 34.5142 6.36084 35.2862 13.5203C35.3639 14.2438 34.8638 14.8952 34.1696 14.976C34.1222 14.9813 34.0733 14.9848 34.026 14.9848C33.3891 14.9848 32.8418 14.4878 32.7691 13.8153C32.1289 7.88685 27.6996 3.28599 21.995 2.62747C21.3007 2.5467 20.799 1.89696 20.8767 1.17346C20.9527 0.451727 21.5726 -0.0803567 22.2754 0.010958Z" fill="#69BECC"/>
</g>
<defs>
<clipPath id="clip0_24_593">
<rect width="36" height="36" fill="white"/>
</clipPath>
</defs>
</svg>
