<svg width="36" height="36" viewBox="0 0 36 36" fill="none" xmlns="http://www.w3.org/2000/svg">
<path d="M9.78745 16.9314C7.5937 16.9314 5.7937 18.6751 5.7937 20.8689C5.7937 23.0626 7.5937 24.8064 9.78745 24.8064C11.9812 24.8064 13.7812 23.0626 13.7812 20.8689C13.7812 18.6751 11.9812 16.9314 9.78745 16.9314ZM9.78745 22.2751C8.99995 22.2751 8.32495 21.6564 8.32495 20.8689C8.32495 20.0814 8.99995 19.4626 9.78745 19.4626C10.575 19.4626 11.25 20.0814 11.25 20.8689C11.25 21.6001 10.6312 22.2751 9.78745 22.2751Z" fill="#69BECC"/>
<path d="M26.2125 16.8188C24.0187 16.8188 22.2188 18.6188 22.2188 20.8126C22.2188 23.0063 24.0187 24.8063 26.2125 24.8063C28.4062 24.8063 30.2063 23.0063 30.2063 20.8126C30.2063 18.6188 28.4062 16.8188 26.2125 16.8188ZM26.2125 22.2188C25.425 22.2188 24.75 21.6001 24.75 20.7563C24.75 19.9126 25.425 19.2938 26.2125 19.2938C27 19.2938 27.675 19.9126 27.675 20.7563C27.675 21.6001 27 22.2188 26.2125 22.2188Z" fill="#69BECC"/>
<path d="M19.35 19.5188H16.65C15.975 19.5188 15.3562 20.0813 15.3562 20.8125C15.3562 21.5438 15.9187 22.1063 16.65 22.1063H19.35C20.025 22.1063 20.6437 21.5438 20.6437 20.8125C20.6437 20.0813 20.025 19.5188 19.35 19.5188Z" fill="#69BECC"/>
<path d="M32.5125 13.1063L32.0062 7.5376C31.725 4.3876 28.8562 1.9126 25.4812 1.9126H10.5187C7.1437 1.9126 4.27495 4.3876 3.9937 7.48135L3.48745 13.0501C2.02495 13.5001 1.01245 14.8501 1.01245 16.4251V25.1438C1.01245 27.1126 2.58745 28.6876 4.49995 28.6876H4.61245V30.5438C4.61245 32.4563 6.18745 34.0876 8.1562 34.0876H8.99995C10.9125 34.0876 12.5437 32.5126 12.5437 30.5438V28.6876H23.4562V30.5438C23.4562 32.4563 25.0312 34.0876 27 34.0876H27.9C29.8125 34.0876 31.4437 32.5126 31.4437 30.5438V28.6876H31.5C33.4125 28.6876 35.0437 27.1126 35.0437 25.1438V16.4251C35.0437 14.8501 33.975 13.5563 32.5125 13.1063ZM6.52495 7.7626C6.6937 5.90635 8.43745 4.5001 10.5187 4.5001H25.5375C27.6187 4.5001 29.4187 5.9626 29.5312 7.7626L29.9812 12.9376H6.0187L6.52495 7.7626ZM10.0125 30.5438C10.0125 31.1063 9.56245 31.5563 8.99995 31.5563H8.09995C7.53745 31.5563 7.08745 31.1063 7.08745 30.5438V28.6876H9.9562V30.5438H10.0125ZM28.8562 30.5438C28.8562 31.1063 28.4062 31.5563 27.8437 31.5563H27C26.4375 31.5563 25.9875 31.1063 25.9875 30.5438V28.6876H28.8562V30.5438ZM32.5125 25.2001C32.5125 25.7626 32.0625 26.2126 31.5 26.2126H4.61245H4.49995C3.93745 26.2126 3.48745 25.7626 3.48745 25.2001V16.4251C3.48745 15.8626 3.93745 15.4126 4.49995 15.4126H31.5C32.0625 15.4126 32.5125 15.8626 32.5125 16.4251V25.2001Z" fill="#69BECC"/>
</svg>
