<svg width="44" height="40" viewBox="0 0 44 40" fill="none" xmlns="http://www.w3.org/2000/svg">
<path fill-rule="evenodd" clip-rule="evenodd" d="M30.9663 3.33325C37.1616 3.33325 41.8333 7.86159 41.8333 13.8666V25.3133C41.8333 28.3866 40.6202 31.1632 38.4156 33.1332C36.4379 34.8983 33.8723 35.8333 30.996 35.8333H12.6649C9.79418 35.8333 7.23046 34.8999 5.25093 33.1332C3.04628 31.1632 1.83325 28.3866 1.83325 25.3133V13.8666C1.83325 7.86159 6.50488 3.33325 12.7002 3.33325H30.9663ZM30.9663 5.83325H12.7002C8.02116 5.83325 4.62395 9.21159 4.62395 13.8666V25.3133C4.62395 27.7183 5.54674 29.8666 7.22116 31.3616C8.66488 32.6532 10.5495 33.3333 12.6705 33.3333H30.9663C30.97 33.3299 30.9849 33.3333 30.996 33.3333C33.1188 33.3333 35.0016 32.6532 36.4453 31.3616C38.1216 29.8666 39.0426 27.7183 39.0426 25.3133V13.8666C39.0426 9.21159 35.6453 5.83325 30.9663 5.83325ZM33.8984 13.5479C34.3839 14.0829 34.2928 14.8696 33.6956 15.3063L25.4277 21.3263C24.3821 22.0696 23.1319 22.4413 21.8835 22.4413C20.6388 22.4413 19.3979 22.0729 18.3598 21.3363L10.0156 15.3096C9.41465 14.8763 9.32162 14.0879 9.80348 13.5513C10.2891 13.0163 11.1672 12.9313 11.7663 13.3629L20.103 19.3829C21.1505 20.1263 22.6258 20.1263 23.6807 19.3763L31.9337 13.3663C32.5328 12.9279 33.4109 13.0113 33.8984 13.5479Z" fill="#69BECC"/>
</svg>
